Coordinates
version=1
nRows=13
nColumns=38
inDegrees=no

Units are S.I. units (second, meters, Newtons, ...)
If the header above contains a line with 'inDegrees', this indicates whether rotational values are in degrees (yes) or radians (no).

endheader
time	pelvis_tilt	pelvis_list	pelvis_rotation	pelvis_tx	pelvis_ty	pelvis_tz	hip_flexion_r	hip_adduction_r	hip_rotation_r	knee_angle_r	ankle_angle_r	subtalar_angle_r	mtp_angle_r	hip_flexion_l	hip_adduction_l	hip_rotation_l	knee_angle_l	ankle_angle_l	subtalar_angle_l	mtp_angle_l	lumbar_extension	lumbar_bending	lumbar_rotation	arm_flex_r	arm_add_r	arm_rot_r	elbow_flex_r	pro_sup_r	wrist_flex_r	wrist_dev_r	arm_flex_l	arm_add_l	arm_rot_l	elbow_flex_l	pro_sup_l	wrist_flex_l	wrist_dev_l
1.48	-2.91356	1.47835	-1.8422	0.643105	1.51313	0.961308	-0.192037	-0.00698021	-0.128825	0.174699	0.198186	0	0	0.44402	-0.00299801	-0.221826	0.604052	0.135425	0	0	-0.239093	-0.0560588	-0.0686585	-0.0933865	-0.13967	0.00692501	0.416222	1.28186	0	0	0.0580162	-0.408014	0.794752	0.679595	0.734684	0	0
1.49	-2.90858	1.47934	-1.85022	0.643345	1.52548	0.959453	-0.210182	-0.0083832	-0.127511	0.165888	0.20669	0	0	0.436768	-0.00126977	-0.252983	0.537446	0.145088	0	0	-0.237828	-0.057246	-0.0698629	-0.0908787	-0.137188	0.00401214	0.411156	1.2848	0	0	0.0545092	-0.410958	0.802493	0.679995	0.737022	0	0
1.5	-2.89617	1.48132	-1.8648	0.6434	1.53799	0.957391	-0.225744	-0.0104947	-0.128755	0.160676	0.216076	0	0	0.429818	0.00286322	-0.283867	0.470822	0.154963	0	0	-0.234987	-0.0587677	-0.0719979	-0.0890791	-0.135467	0.00489764	0.407018	1.28521	0	0	0.0503828	-0.413264	0.809575	0.679003	0.740644	0	0
1.51	-2.8675	1.4846	-1.89521	0.643308	1.55061	0.955081	-0.237829	-0.014019	-0.133094	0.158996	0.226412	0	0	0.423838	0.0102418	-0.311801	0.404359	0.165357	0	0	-0.230113	-0.0611932	-0.0743536	-0.0880998	-0.133826	0.0061854	0.403372	1.28512	0	0	0.0459872	-0.415052	0.8163	0.676664	0.744817	0	0
1.52	-2.82121	1.48816	-1.94346	0.64305	1.56332	0.952626	-0.247009	-0.0196095	-0.139613	0.161583	0.238474	0	0	0.417062	0.0218515	-0.33306	0.3362	0.174976	0	0	-0.224262	-0.0646889	-0.0765046	-0.0873713	-0.132247	0.00787451	0.399679	1.28352	0	0	0.041308	-0.416122	0.822141	0.673067	0.750045	0	0
1.53	-2.76184	1.49121	-2.00491	0.642625	1.57612	0.950144	-0.254469	-0.0268862	-0.147292	0.168176	0.252229	0	0	0.407726	0.0376394	-0.340857	0.264201	0.180361	0	0	-0.218395	-0.0689452	-0.0784548	-0.0869079	-0.131009	0.0111809	0.396356	1.27799	0	0	0.0361905	-0.416362	0.82568	0.668895	0.756422	0	0
1.54	-2.69504	1.49293	-2.0746	0.642142	1.5891	0.947729	-0.261216	-0.0354799	-0.155997	0.178106	0.266718	0	0	0.393748	0.056703	-0.330406	0.186661	0.176368	0	0	-0.21327	-0.0739663	-0.079451	-0.0867611	-0.130432	0.0160065	0.393793	1.27139	0	0	0.030607	-0.416006	0.827645	0.664439	0.761742	0	0
1.55	-2.80541	1.48545	-1.96505	0.64116	1.6025	0.947445	-0.276728	-0.0372839	-0.177348	0.20287	0.279308	0	0	0.35801	0.069324	-0.295731	0.102774	0.160259	0	0	-0.225296	-0.0677135	-0.0808407	-0.0840206	-0.132257	0.0189621	0.391048	1.26784	0	0	0.0277902	-0.409709	0.824651	0.652838	0.771996	0	0
1.56	-2.76362	1.48649	-2.01271	0.641032	1.61604	0.945105	-0.281656	-0.0461616	-0.184079	0.220172	0.292497	0	0	0.33953	0.083823	-0.258216	0.0316269	0.139531	0	0	-0.220686	-0.0723976	-0.0777329	-0.0851778	-0.131714	0.0196203	0.389056	1.26871	0	0	0.0207825	-0.408965	0.823834	0.648735	0.777244	0	0
1.57	-2.73894	1.4885	-2.04313	0.641079	1.62962	0.942807	-0.285107	-0.0526599	-0.187592	0.23896	0.302433	0	0	0.33255	0.0905386	-0.23546	0	0.129844	0	0	-0.215784	-0.0753967	-0.0738302	-0.0865092	-0.130952	0.0199811	0.387252	1.26874	0	0	0.0135921	-0.408684	0.822804	0.645778	0.777604	0	0
1.58	-2.72109	1.48983	-2.0657	0.64116	1.64318	0.940745	-0.288902	-0.0583253	-0.189518	0.258315	0.309156	0	0	0.33519	0.0933924	-0.227394	0	0.129716	0	0	-0.212319	-0.0782343	-0.0702702	-0.0878147	-0.129773	0.0195674	0.386056	1.26832	0	0	0.00667666	-0.409055	0.821063	0.643681	0.77703	0	0
1.59	-2.6901	1.48996	-2.10146	0.641247	1.65689	0.938846	-0.291741	-0.0663283	-0.191522	0.280975	0.31528	0	0	0.344264	0.0953021	-0.225281	5.64673e-08	0.130825	0	0	-0.209408	-0.0827224	-0.0658314	-0.0897282	-0.128571	0.0183898	0.385257	1.26756	0	0	-0.000136243	-0.409893	0.818947	0.642322	0.775129	0	0
1.6	-2.6479	1.48926	-2.14879	0.64144	1.6708	0.937048	-0.291043	-0.0763294	-0.19258	0.310663	0.320732	0	0	0.361336	0.0953647	-0.233765	0.038795	0.1369	0	0	-0.206501	-0.0886641	-0.0600007	-0.092299	-0.127361	0.016642	0.384383	1.26682	0	0	-0.00724972	-0.411461	0.815502	0.642844	0.771855	0	0
